<?xml version="1.0" encoding="UTF-8"?>
<svg width="24px" height="24px" viewBox="0 0 24 24" version="1.1" xmlns="http://www.w3.org/2000/svg" xmlns:xlink="http://www.w3.org/1999/xlink">
    <title>Facebook</title>
    <g id="landing-page" stroke="none" stroke-width="1" fill="none" fill-rule="evenodd">
        <g id="Desktop_main" transform="translate(-1010.000000, -5912.000000)" fill="#FFFFFF">
            <g id="Group-5" transform="translate(0.000000, 5753.000000)">
                <g id="Facebook" transform="translate(1010.000000, 159.000000)">
                    <path d="M12,0 C18.6274173,0 24,5.37258267 24,12 C24,18.6274173 18.6274173,24 12,24 C5.37258267,24 0,18.6274173 0,12 C0,5.37258267 5.37258267,0 12,0 Z M15.2790369,6 L13.4765933,6 C11.3115687,6 10.5495362,7.09139664 10.5495362,8.92678259 L10.5495362,10.2775563 L9.2,10.2775563 L9.2,12.5273596 L10.5495362,12.5273596 L10.5495362,19.0557384 L13.2507775,19.0557384 L13.2507775,12.5271048 L15.0529659,12.5271048 L15.2917948,10.2773015 L13.2507775,10.2773015 L13.2538395,9.15125333 C13.2538395,8.56446999 13.3095917,8.25005807 14.1523821,8.25005807 L15.2790369,8.25005807 L15.2790369,6 Z" id="Combined-Shape"></path>
                </g>
            </g>
        </g>
    </g>
</svg>