<?xml version="1.0" encoding="UTF-8"?>
<svg width="24px" height="24px" viewBox="0 0 24 24" version="1.1" xmlns="http://www.w3.org/2000/svg" xmlns:xlink="http://www.w3.org/1999/xlink">
    <title>Mail</title>
    <g id="landing-page" stroke="none" stroke-width="1" fill="none" fill-rule="evenodd">
        <g id="Desktop_main" transform="translate(-1082.000000, -5912.000000)" fill="#FFFFFF">
            <g id="Group-5" transform="translate(0.000000, 5753.000000)">
                <g id="Mail" transform="translate(1082.000000, 159.000000)">
                    <path d="M12,0 C18.627417,0 24,5.372583 24,12 C24,18.627417 18.627417,24 12,24 C5.372583,24 0,18.627417 0,12 C0,5.372583 5.372583,0 12,0 Z M17.9272,10.08 C17.9272,10.08 13.19488,12.646512 12.1672,12.646512 C11.22976,12.646512 6.4072,10.08 6.40768,10.08 L6.40768,10.08 L6.4,15.84 C6.4,16.36992 6.83056,16.8 7.36096,16.8 L7.36096,16.8 L16.97344,16.8 C17.5048,16.8 17.93488,16.36992 17.93488,15.84 L17.93488,15.84 Z M16.97344,7.2 L7.36096,7.2 C6.83008,7.2 6.4,7.63008 6.4,8.16 L6.4,8.16 L6.4,8.58768 C6.4,8.58768 11.22976,11.326512 12.1672,11.326512 C13.14976,11.326512 17.9272,8.64 17.9272,8.64 L17.9272,8.64 L17.93488,8.16 C17.93488,7.63008 17.5048,7.2 16.97344,7.2 L16.97344,7.2 Z" id="Combined-Shape"></path>
                </g>
            </g>
        </g>
    </g>
</svg>