<svg xmlns="http://www.w3.org/2000/svg" xmlns:xlink="http://www.w3.org/1999/xlink" width="140" height="140" viewBox="0 0 140 140">
    <defs>
        <path id="prefix__a" d="M0 140L140 140 140 0 0 0z"/>
    </defs>
    <g fill="none" fill-rule="evenodd">
        <path fill="#222829" d="M32.813 127.376l-1.271-.908C30.253 125.548 0 103.727 0 85.312V63.439h4.375v21.874c0 14.239 22.754 32.351 28.438 36.65 5.683-4.3 28.437-22.426 28.437-36.65V63.439h4.375v21.874c0 18.415-30.253 40.235-31.542 41.156l-1.27.908zM48.726 50.228L47.523 46.022 62.836 41.647 64.039 45.853zM16.899 50.228L1.586 45.853 2.789 41.647 18.102 46.022z"/>
        <path fill="#222829" d="M4.375 55.225l10.938 3.126V38.838L4.374 35.712v19.513zm45.938-16.387v19.513l10.937-3.126V35.712l-10.938 3.126zM45.937 64.15V38.092L42.844 35H22.781l-3.093 3.093V64.15L0 58.526V29.913l16.863 4.817 4.106-4.106h23.687l4.106 4.106 16.863-4.817v28.613L45.937 64.15z"/>
        <mask id="prefix__b" fill="#fff">
            <use xlink:href="#prefix__a"/>
        </mask>
        <path fill="#222829" d="M30.625 67.813L35 67.813 35 63.438 30.625 63.438zM30.625 50.313L35 50.313 35 45.938 30.625 45.938zM30.625 59.063L35 59.063 35 54.688 30.625 54.688zM32.813 92.207L1.103 74.086 3.272 70.289 32.813 87.167 62.352 70.289 64.522 74.086zM83.125 39.375L87.5 39.375 87.5 35 83.125 35zM91.875 30.625L96.25 30.625 96.25 26.25 91.875 26.25zM83.125 30.625L87.5 30.625 87.5 26.25 83.125 26.25zM100.625 39.375L105 39.375 105 35 100.625 35zM74.375 30.625L78.75 30.625 78.75 26.25 74.375 26.25zM74.375 21.875L78.75 21.875 78.75 17.5 74.375 17.5zM65.625 21.875L70 21.875 70 17.5 65.625 17.5zM48.125 21.875L52.5 21.875 52.5 17.5 48.125 17.5zM39.375 21.875L43.75 21.875 43.75 17.5 39.375 17.5zM0 4.375L4.375 4.375 4.375 0 0 0zM91.875 56.875L96.25 56.875 96.25 52.5 91.875 52.5zM83.125 48.125L87.5 48.125 87.5 43.75 83.125 43.75zM91.875 48.125L96.25 48.125 96.25 43.75 91.875 43.75zM83.125 56.875L87.5 56.875 87.5 52.5 83.125 52.5zM74.375 56.875L78.75 56.875 78.75 52.5 74.375 52.5zM74.375 39.375L78.75 39.375 78.75 35 74.375 35zM74.375 65.625L78.75 65.625 78.75 61.25 74.375 61.25zM74.375 74.375L78.75 74.375 78.75 70 74.375 70zM74.375 91.875L78.75 91.875 78.75 87.5 74.375 87.5zM74.375 100.625L78.75 100.625 78.75 96.25 74.375 96.25zM100.625 48.125L105 48.125 105 43.75 100.625 43.75zM91.875 65.625L96.25 65.625 96.25 61.25 91.875 61.25zM83.125 65.625L87.5 65.625 87.5 61.25 83.125 61.25zM100.625 65.625L105 65.625 105 61.25 100.625 61.25zM91.875 74.375L96.25 74.375 96.25 70 91.875 70zM83.125 83.125L87.5 83.125 87.5 78.75 83.125 78.75zM74.375 83.125L78.75 83.125 78.75 78.75 74.375 78.75zM83.125 91.875L87.5 91.875 87.5 87.5 83.125 87.5zM100.625 140L105 140 105 113.75 100.625 113.75z" mask="url(#prefix__b)"/>
        <path fill="#222829" d="M126.875 115.938H87.5v-4.376h35V78.75h13.125v-1.79l-12.987-34.63c-.138-.354-15.23-37.955-50.45-37.955H8.75V0h63.438c38.24 0 54.379 40.362 54.538 40.77L140 76.168v6.958h-13.125v32.813z" mask="url(#prefix__b)"/>
    </g>
</svg>
