<svg xmlns="http://www.w3.org/2000/svg" xmlns:xlink="http://www.w3.org/1999/xlink" width="140" height="140" viewBox="0 0 140 140">
    <defs>
        <path id="prefix__a" d="M0 140L140 140 140 0 0 0z"/>
    </defs>
    <g fill="none" fill-rule="evenodd">
        <path fill="#222829" d="M135.625 131.25H76.562v-4.375h59.063V4.375H72.187V35h-4.374V4.375C67.813 1.962 69.775 0 72.186 0h63.438C138.038 0 140 1.962 140 4.375v122.5c0 2.413-1.962 4.375-4.375 4.375"/>
        <mask id="prefix__b" fill="#fff">
            <use xlink:href="#prefix__a"/>
        </mask>
        <path fill="#222829" d="M70 21.875L131.25 21.875 131.25 17.5 70 17.5zM102.813 13.125L107.188 13.125 107.188 8.75 102.813 8.75zM111.563 13.125L115.938 13.125 115.938 8.75 111.563 8.75zM94.063 13.125L98.438 13.125 98.438 8.75 94.063 8.75zM76.563 113.75L137.813 113.75 137.813 109.375 76.563 109.375zM98.438 122.5L111.563 122.5 111.563 118.125 98.438 118.125zM67.813 140H4.374C1.962 140 0 138.038 0 135.625v-122.5C0 10.712 1.962 8.75 4.375 8.75h59.063v4.375H4.374v122.5h63.438V105h4.374v30.625c0 2.413-1.962 4.375-4.374 4.375" mask="url(#prefix__b)"/>
        <path fill="#222829" d="M2.188 122.5L63.438 122.5 63.438 118.125 2.188 118.125zM32.813 131.25L37.188 131.25 37.188 126.875 32.813 126.875zM41.563 131.25L45.938 131.25 45.938 126.875 41.563 126.875zM24.063 131.25L28.438 131.25 28.438 126.875 24.063 126.875zM8.75 30.625L63.438 30.625 63.438 26.25 8.75 26.25zM28.438 21.875L41.563 21.875 41.563 17.5 28.438 17.5zM52.5 72.188L56.875 72.188 56.875 67.813 52.5 67.813zM83.125 72.188L87.5 72.188 87.5 67.813 83.125 67.813z" mask="url(#prefix__b)"/>
        <path fill="#222829" d="M47.69 90.98C42.327 85.28 39.374 77.829 39.374 70c0-16.888 13.737-30.625 30.625-30.625h59.062v4.375H70c-14.473 0-26.25 11.775-26.25 26.25 0 6.713 2.53 13.096 7.126 17.98l-3.187 3z" mask="url(#prefix__b)"/>
        <path fill="#222829" d="M121.859 51.859L118.766 48.766 125.969 41.563 118.766 34.359 121.859 31.266 132.156 41.563zM70 100.625H10.937V96.25H70c14.475 0 26.25-11.775 26.25-26.25 0-7.01-2.73-13.604-7.69-18.56l3.094-3.094C97.44 54.13 100.625 61.82 100.625 70c0 16.888-13.737 30.625-30.625 30.625" mask="url(#prefix__b)"/>
        <path fill="#222829" d="M18.141 108.734L7.844 98.438 18.141 88.141 21.234 91.234 14.031 98.438 21.234 105.641zM67.813 76.563h5.21l1.094-2.188L71.929 70l2.188-4.375-1.094-2.188h-5.21v13.126zm7.914 4.374h-12.29V59.064h12.29l3.281 6.562L76.821 70l2.187 4.375-3.281 6.563z" mask="url(#prefix__b)"/>
        <path fill="#222829" d="M67.813 85.313L72.188 85.313 72.188 78.75 67.813 78.75zM67.813 61.25L72.188 61.25 72.188 54.688 67.813 54.688zM65.625 72.188L74.375 72.188 74.375 67.813 65.625 67.813z" mask="url(#prefix__b)"/>
    </g>
</svg>
