<svg xmlns="http://www.w3.org/2000/svg" xmlns:xlink="http://www.w3.org/1999/xlink" width="130" height="130" viewBox="0 0 130 130">
    <defs>
        <filter id="prefix__a">
            <feColorMatrix in="SourceGraphic" values="0 0 0 0 0.164706 0 0 0 0 0.168627 0 0 0 0 0.192157 0 0 0 1.000000 0"/>
        </filter>
        <path id="prefix__b" d="M0 130L130 130 130 0 0 0z"/>
    </defs>
    <g fill="none" fill-rule="evenodd" filter="url(#prefix__a)">
        <mask id="prefix__c" fill="#fff">
            <use xlink:href="#prefix__b"/>
        </mask>
        <path fill="#222829" d="M83.056 102.014L91.181 102.014 91.181 97.5 83.056 97.5zM18.056 93.889L22.569 93.889 22.569 89.375 18.056 89.375zM30.694 93.889L35.208 93.889 35.208 89.375 30.694 89.375zM14.444 102.014L22.569 102.014 22.569 97.5 14.444 97.5zM26.181 102.014L30.694 102.014 30.694 97.5 26.181 97.5zM34.306 102.014L38.819 102.014 38.819 97.5 34.306 97.5zM42.431 102.014L46.944 102.014 46.944 97.5 42.431 97.5zM50.556 102.014L55.069 102.014 55.069 97.5 50.556 97.5zM58.681 102.014L63.194 102.014 63.194 97.5 58.681 97.5zM66.806 102.014L71.319 102.014 71.319 97.5 66.806 97.5zM79.444 110.139L83.958 110.139 83.958 105.625 79.444 105.625zM21.667 110.139L26.181 110.139 26.181 105.625 21.667 105.625zM38.819 93.889L43.333 93.889 43.333 89.375 38.819 89.375zM46.944 93.889L51.458 93.889 51.458 89.375 46.944 89.375zM55.069 93.889L59.583 93.889 59.583 89.375 55.069 89.375zM63.194 93.889L67.708 93.889 67.708 89.375 63.194 89.375zM71.319 93.889L75.833 93.889 75.833 89.375 71.319 89.375zM79.444 93.889L92.083 93.889 92.083 89.375 79.444 89.375zM74.931 102.014L79.444 102.014 79.444 97.5 74.931 97.5zM105.625 130L79.444 130 79.444 125.896 101.597 125.896 101.597 84.861 105.625 84.861zM4.081 73.125L0 73.125 0 24.375 102.014 24.375 102.014 28.438 4.081 28.438z" mask="url(#prefix__c)"/>
        <path fill="#222829" d="M30.694 63.194L18.056 63.194 18.056 59.042 26.481 59.042 26.481 56.172 18.056 52.019 18.056 42.431 30.694 42.431 30.694 46.583 22.269 46.583 22.269 49.453 30.694 53.606z" mask="url(#prefix__c)"/>
        <path fill="#222829" d="M21.667 66.806L26.181 66.806 26.181 60.486 21.667 60.486zM21.667 45.139L26.181 45.139 26.181 38.819 21.667 38.819zM42.431 55.069L87.569 55.069 87.569 50.556 42.431 50.556zM42.431 63.194L79.444 63.194 79.444 58.681 42.431 58.681zM42.431 43.333L46.944 43.333 46.944 38.819 42.431 38.819zM83.056 63.194L87.569 63.194 87.569 58.681 83.056 58.681zM83.056 20.764L87.569 20.764 87.569 16.25 83.056 16.25zM74.931 20.764L79.444 20.764 79.444 16.25 74.931 16.25zM66.806 20.764L71.319 20.764 71.319 16.25 66.806 16.25z" mask="url(#prefix__c)"/>
        <path fill="#222829" d="M34.531 125.938h36.563v-16.25H34.53v16.25zM75.156 130H0V77.187h101.563v-18.28h16.25v-16.25h8.124v-1.703l-5.988-17.968c-4.304-12.911-12.73-18.924-26.511-18.924H58.906V0h34.532C109 0 118.936 7.1 123.8 21.702L130 40.296v6.423h-8.125v12.187c0 2.24-1.822 4.063-4.063 4.063h-12.187V81.25H4.062v44.688H30.47v-20.313h44.687V130z" mask="url(#prefix__c)"/>
    </g>
</svg>
