<?xml version="1.0" encoding="UTF-8"?>
<svg width="29px" height="28px" viewBox="0 0 29 28" version="1.1" xmlns="http://www.w3.org/2000/svg" xmlns:xlink="http://www.w3.org/1999/xlink">
    <title>Icons/github</title>
    <defs>
        <path d="M13.7491559,0 C6.15669122,0 0,6.12056067 0,13.6720216 C0,19.7111763 3.93930325,24.8347225 9.40385206,26.6432798 C10.0917741,26.7683262 10.3424647,26.3461896 10.3424647,25.9836389 C10.3424647,25.6596932 10.3306476,24.7994745 10.323895,23.6589505 C6.49938613,24.4847604 5.69244936,21.8260553 5.69244936,21.8260553 C5.06698895,20.2466099 4.16551565,19.8269911 4.16551565,19.8269911 C2.91712707,18.9785217 4.26005218,18.9953065 4.26005218,18.9953065 C5.64011664,19.0926581 6.3660221,20.4043866 6.3660221,20.4043866 C7.5924647,22.4932493 9.58364027,21.8898374 10.367787,21.5407145 C10.4927103,20.6569972 10.8472222,20.0544245 11.2405617,19.7128547 C8.18753837,19.367928 4.97751688,18.1946737 4.97751688,12.9561519 C4.97751688,11.4639872 5.51350522,10.2437356 6.39303254,9.28784381 C6.25122775,8.94207787 5.7793892,7.55230021 6.52724064,5.66989001 C6.52724064,5.66989001 7.68193677,5.30230389 10.3087017,7.071417 C11.4051565,6.76761295 12.5817986,6.61655016 13.7508441,6.61067549 C14.9182014,6.61655016 16.0948435,6.76761295 17.1929865,7.071417 C19.8180632,5.30230389 20.9702271,5.66989001 20.9702271,5.66989001 C21.7206108,7.55230021 21.2487723,8.94207787 21.1069675,9.28784381 C21.9881829,10.2437356 22.520795,11.4639872 22.520795,12.9561519 C22.520795,18.2081015 19.305709,19.3637318 16.2425568,19.7019446 C16.7363413,20.1240812 17.176105,20.9582835 17.176105,22.2339248 C17.176105,24.0609453 17.1592234,25.535486 17.1592234,25.9836389 C17.1592234,26.3495466 17.4065378,26.7750401 18.1045887,26.6416013 C23.563229,24.8296871 27.5,19.7094978 27.5,13.6720216 C27.5,6.12056067 21.3433088,0 13.7491559,0" id="path-1"></path>
    </defs>
    <g id="landing-page" stroke="none" stroke-width="1" fill="none" fill-rule="evenodd">
        <g id="Desktop_main" transform="translate(-249.000000, -555.000000)">
            <g id="Icons/github" transform="translate(247.000000, 553.000000)">
                <g id="Color/blue" transform="translate(2.750000, 2.666667)">
                    <mask id="mask-2" fill="white">
                        <use xlink:href="#path-1"></use>
                    </mask>
                    <use id="Mask" fill="#181717" xlink:href="#path-1"></use>
                    <g id="Color/white" mask="url(#mask-2)" fill="#FFFFFF">
                        <g transform="translate(-2.750000, -2.666667)" id="Rectangle">
                            <rect x="0" y="0" width="33" height="32"></rect>
                        </g>
                    </g>
                </g>
            </g>
        </g>
    </g>
</svg>