<svg xmlns="http://www.w3.org/2000/svg" xmlns:xlink="http://www.w3.org/1999/xlink" width="33" height="32" viewBox="0 0 33 32">
    <defs>
        <path id="prefix__a" d="M13.75 0C6.156 0 0 6.12 0 13.672c0 6.04 3.94 11.163 9.404 12.971.688.125.938-.297.938-.66 0-.323-.011-1.184-.018-2.324-3.825.826-4.632-1.833-4.632-1.833-.625-1.58-1.526-1.999-1.526-1.999-1.249-.848.094-.832.094-.832 1.38.098 2.106 1.41 2.106 1.41 1.226 2.088 3.218 1.485 4.002 1.136.125-.884.48-1.487.873-1.828-3.053-.345-6.263-1.518-6.263-6.757 0-1.492.536-2.712 1.415-3.668-.142-.346-.614-1.736.134-3.618 0 0 1.155-.368 3.782 1.401 1.096-.303 2.273-.454 3.442-.46 1.167.006 2.344.157 3.442.46C19.818 5.302 20.97 5.67 20.97 5.67c.75 1.882.279 3.272.137 3.618.881.956 1.414 2.176 1.414 3.668 0 5.252-3.215 6.408-6.278 6.746.493.422.933 1.256.933 2.532 0 1.827-.017 3.301-.017 3.75 0 .366.248.791.946.658 5.458-1.812 9.395-6.933 9.395-12.97C27.5 6.121 21.343 0 13.75 0"/>
    </defs>
    <g fill="none" fill-rule="evenodd" transform="translate(2.75 2.667)">
        <mask id="prefix__b" fill="#fff">
            <use xlink:href="#prefix__a"/>
        </mask>
        <use fill="#181717" xlink:href="#prefix__a"/>
        <g fill="#FFF" mask="url(#prefix__b)">
            <path d="M0 0H33V32H0z" transform="translate(-2.75 -2.667)"/>
        </g>
    </g>
</svg>
