<svg xmlns="http://www.w3.org/2000/svg" width="130" height="130" viewBox="0 0 130 130">
    <defs>
        <filter id="prefix__a">
            <feColorMatrix in="SourceGraphic" values="0 0 0 0 0.164706 0 0 0 0 0.168627 0 0 0 0 0.192157 0 0 0 1.000000 0"/>
        </filter>
    </defs>
    <g fill="none" fill-rule="evenodd" filter="url(#prefix__a)">
        <path fill="#222829" d="M16.25 12.188L20.313 12.188 20.313 8.125 16.25 8.125zM24.375 12.188L28.438 12.188 28.438 8.125 24.375 8.125zM32.5 12.188L36.563 12.188 36.563 8.125 32.5 8.125zM40.625 12.188L121.875 12.188 121.875 8.125 40.625 8.125zM0 16.25L0 109.688 54.844 109.688 54.844 105.625 4.063 105.625 4.063 16.25z"/>
        <path fill="#222829" d="M0 0L0 12.188 12.188 12.188 12.188 8.125 4.063 8.125 4.063 4.063 125.938 4.063 125.938 105.625 69.063 105.625 69.063 109.688 130 109.688 130 0z"/>
        <path fill="#222829" d="M121.875 101.563L69.063 101.563 69.063 97.5 117.813 97.5 117.813 20.313 12.188 20.313 12.188 97.5 54.844 97.5 54.844 101.563 8.125 101.563 8.125 16.25 121.875 16.25z"/>
        <path fill="#222829" d="M58.906 91.406L58.906 130 62.968 130 62.968 94.163 67.033 94.163 67.033 130 71.093 130 71.093 91.406zM28.438 89.375L32.5 89.375 32.5 85.313 28.438 85.313zM36.563 89.375L40.625 89.375 40.625 85.313 36.563 85.313zM44.688 89.375L48.75 89.375 48.75 85.313 44.688 85.313zM81.25 89.375L85.313 89.375 85.313 85.313 81.25 85.313zM89.375 89.375L93.438 89.375 93.438 85.313 89.375 85.313zM97.5 89.375L101.563 89.375 101.563 85.313 97.5 85.313z"/>
        <path fill="#181616" d="M64.877 21.094c-18.269 0-33.085 14.814-33.085 33.091 0 14.617 9.48 27.018 22.63 31.395 1.654.303 2.257-.719 2.257-1.596 0-.784-.028-2.866-.045-5.627-9.203 1.999-11.145-4.436-11.145-4.436-1.505-3.823-3.675-4.839-3.675-4.839-3.004-2.053.23-2.013.23-2.013 3.319.236 5.068 3.41 5.068 3.41 2.951 5.057 7.743 3.596 9.628 2.751.303-2.139 1.154-3.597 2.1-4.424-7.347-.835-15.072-3.674-15.072-16.353 0-3.612 1.29-6.565 3.407-8.879-.341-.837-1.475-4.2.325-8.757 0 0 2.779-.89 9.1 3.392 2.638-.735 5.468-1.1 8.283-1.115 2.81.014 5.639.38 8.282 1.115 6.317-4.281 9.091-3.392 9.091-3.392 1.804 4.556.669 7.92.33 8.757 2.12 2.314 3.402 5.267 3.402 8.879 0 12.711-7.737 15.508-15.109 16.327 1.187 1.021 2.247 3.04 2.247 6.128 0 4.422-.04 7.991-.04 9.076 0 .885.595 1.915 2.274 1.592 13.136-4.385 22.608-16.778 22.608-31.39 0-18.278-14.816-33.092-33.09-33.092"/>
    </g>
</svg>
