<svg xmlns="http://www.w3.org/2000/svg" xmlns:xlink="http://www.w3.org/1999/xlink" width="180" height="180" viewBox="0 0 180 180">
    <defs>
        <filter id="prefix__a">
            <feColorMatrix in="SourceGraphic" values="0 0 0 0 0.078431 0 0 0 0 0.156863 0 0 0 0 0.898039 0 0 0 1.000000 0"/>
        </filter>
        <path id="prefix__b" d="M0 180L180 180 180 0 0 0z"/>
    </defs>
    <g fill="none" fill-rule="evenodd" filter="url(#prefix__a)">
        <mask id="prefix__c" fill="#fff">
            <use xlink:href="#prefix__b"/>
        </mask>
        <path fill="#222829" d="M36 65L42 65 42 59 36 59zM23 57L29 57 29 51 23 51zM8 48L14 48 14 42 8 42zM59 42L65 42 65 36 59 36zM51 29L57 29 57 23 51 23zM42 14L48 14 48 8 42 8zM87 20L93 20 93 14 87 14zM87 34L93 34 93 28 87 28zM87 6L93 6 93 0 87 0zM138 65L144 65 144 59 138 59zM151 57L157 57 157 51 151 51zM166 48L172 48 172 42 166 42zM115 42L121 42 121 36 115 36zM123 29L129 29 129 23 123 23zM132 14L138 14 138 8 132 8zM14 93L20 93 20 87 14 87zM28 93L34 93 34 87 28 87zM0 93L6 93 6 87 0 87zM36 121L42 121 42 115 36 115zM23 129L29 129 29 123 23 123zM8 138L14 138 14 132 8 132zM59 144L65 144 65 138 59 138zM51 157L57 157 57 151 51 151zM42 172L48 172 48 166 42 166zM87 166L93 166 93 160 87 160zM87 152L93 152 93 146 87 146zM87 180L93 180 93 174 87 174zM160 93L166 93 166 87 160 87zM146 93L152 93 152 87 146 87zM174 93L180 93 180 87 174 87zM138 121L144 121 144 115 138 115zM151 129L157 129 157 123 151 123zM166 138L172 138 172 132 166 132zM115 144L121 144 121 138 115 138zM123 157L129 157 129 151 123 151zM132 172L138 172 138 166 132 166zM75.714 82.25h28.572v-4.879L99.9 70.75H80.1l-4.386 6.621v4.879zM110 88H70V75.629L77.043 65h25.914L110 75.629V88z" mask="url(#prefix__c)"/>
        <path fill="#222829" d="M88 104L48 104 48 91.629 55.043 81 65.143 81 65.143 86.75 58.1 86.75 53.714 93.371 53.714 98.25 82.286 98.25 82.286 93.371 77.051 85.471 81.806 82.279 88 91.629zM132 104L92 104 92 91.629 98.194 82.279 102.949 85.471 97.714 93.371 97.714 98.25 126.286 98.25 126.286 93.371 121.9 86.75 114.857 86.75 114.857 81 124.957 81 132 91.629z" mask="url(#prefix__c)"/>
    </g>
</svg>
