<svg xmlns="http://www.w3.org/2000/svg" xmlns:xlink="http://www.w3.org/1999/xlink" width="120" height="120" viewBox="0 0 120 120">
    <defs>
        <path id="prefix__b" d="M0 0L19 0 19 34.599 0 34.599z"/>
        <path id="prefix__d" d="M0 120L120 120 120 0 0 0z"/>
        <filter id="prefix__a">
            <feColorMatrix in="SourceGraphic" values="0 0 0 0 0.247059 0 0 0 0 0.250980 0 0 0 0 0.282353 0 0 0 1.000000 0"/>
        </filter>
    </defs>
    <g fill="none" fill-rule="evenodd" filter="url(#prefix__a)">
        <path fill="#222829" d="M33.714 71L30 71 30 0 43 0 43 3.737 33.714 3.737zM120 120L52 120 52 116.25 116.222 116.25 116.222 17.651 102.218 3.75 63.333 3.75 63.333 0 103.782 0 120 16.099zM49 120L16 120 16 93 27 93 27 96.857 19.667 96.857 19.667 116.143 45.333 116.143 45.333 96.857 30.667 96.857 30.667 93 49 93z"/>
        <path fill="#222829" d="M46 96h-3.857v-7.636c0-5.264-4.326-9.546-9.643-9.546-5.317 0-9.643 4.282-9.643 9.546V96H19v-7.636C19 80.996 25.058 75 32.5 75S46 80.996 46 88.364V96z"/>
        <g transform="translate(41)">
            <mask id="prefix__c" fill="#fff">
                <use xlink:href="#prefix__b"/>
            </mask>
            <path fill="#222829" d="M9.5 19.89l5.7 5.637V3.757H3.8v21.77l5.7-5.637zM19 34.6l-9.5-9.395L0 34.599v-34.6h19v34.6z" mask="url(#prefix__c)"/>
        </g>
        <mask id="prefix__e" fill="#fff">
            <use xlink:href="#prefix__d"/>
        </mask>
        <path fill="#222829" d="M71 101L109 101 109 98 71 98zM52 109L101 109 101 106 52 106zM79 93L82 93 82 90 79 90zM71 93L74 93 74 90 71 90zM87 93L109 93 109 90 87 90zM106 109L109 109 109 106 106 106zM118 19L101 19 101 2 104.778 2 104.778 15.222 118 15.222zM41 63L71 63 71 60 41 60zM41 56L109 56 109 53 41 53zM41 49L109 49 109 46 41 46zM87 30L109 30 109 27 87 27zM38 109L41 109 41 106 38 106z" mask="url(#prefix__e)"/>
    </g>
</svg>
