<svg xmlns="http://www.w3.org/2000/svg" width="193" height="29" viewBox="0 0 193 29">
    <path fill="#1428E5" fill-rule="evenodd" d="M11.607 0v.662c-.334.073-.613.157-.836.248-.222.092-.334.285-.334.579 0 .11.102.496.307 1.157.203.662.473 1.508.807 2.537.335 1.029.705 2.16 1.115 3.39l1.225 3.694c.409 1.232.789 2.398 1.143 3.501.352 1.103.64 2.022.863 2.757h.112c.222-.698.501-1.59.835-2.674.335-1.084.697-2.242 1.087-3.474.39-1.23.78-2.471 1.17-3.721.39-1.25.742-2.389 1.058-3.418.315-1.029.566-1.884.752-2.564.186-.68.279-1.075.279-1.185 0-.294-.14-.487-.418-.58-.278-.09-.53-.174-.752-.247V0h13.26v.662c-.26.073-.483.157-.669.248-.186.092-.279.285-.279.579 0 .037.093.404.28 1.102.185.699.425 1.581.724 2.647.296 1.066.63 2.251 1.002 3.556.37 1.305.725 2.573 1.059 3.804.334 1.232.65 2.38.947 3.446.297 1.066.52 1.893.669 2.48h.11c.113-.44.326-1.148.642-2.122.315-.973.677-2.067 1.086-3.28.409-1.213.826-2.472 1.254-3.777.426-1.304.826-2.508 1.197-3.611.371-1.103.678-2.04.92-2.812.241-.772.362-1.213.362-1.323 0-.33-.12-.551-.362-.662-.242-.11-.51-.202-.808-.275V0h9.36v.662c-.298.037-.51.147-.64.33-.131.185-.233.423-.307.717l-.446 1.35c-.26.792-.594 1.784-1.002 2.978-.41 1.195-.874 2.555-1.393 4.08l-.342.995c-.224.653.266 1.33.963 1.33H52l-1.114 4.411H45.36c-.436 0-.824.276-.964.684-.21.61-.414 1.215-.614 1.815-.501 1.507-.957 2.858-1.365 4.052-.41 1.195-.733 2.17-.975 2.922-.242.754-.362 1.167-.362 1.24 0 .331.12.534.362.607.242.074.492.129.752.165V29H30.606v-.662c.742-.11 1.114-.366 1.114-.771 0-.442-.186-1.351-.557-2.73-.372-1.378-.827-2.985-1.365-4.824-.54-1.837-1.114-3.795-1.728-5.871-.613-2.076-1.18-4.034-1.699-5.872h-.111c-.446 1.618-1.003 3.483-1.672 5.596-.668 2.114-1.319 4.144-1.95 6.092-.632 1.949-1.17 3.639-1.615 5.072-.446 1.434-.669 2.28-.669 2.537 0 .514.408.771 1.226.771V29H9.546v-.662c.296-.073.557-.155.78-.248.223-.091.334-.32.334-.689 0-.073-.121-.477-.362-1.213-.242-.735-.567-1.7-.975-2.894-.41-1.194-.864-2.554-1.365-4.08-.182-.553-.366-1.109-.553-1.668-.137-.413-.527-.693-.966-.693H1.114L0 12.443h4.267c.694 0 1.184-.674.964-1.325l-.421-1.25c-.52-1.543-.985-2.93-1.393-4.162-.41-1.23-.743-2.25-1.003-3.06L1.97 1.268C1.857.864 1.67.662 1.41.662V0h10.196zm151.505 7.402c1.563 0 1.563 0 2.948.506 1.387.506 1.387.506 2.42 1.518 1.035 1.012 1.035 1.012 1.629 2.497.593 1.485.593 1.485.593 3.443s0 1.958-.582 3.443c-.584 1.485-.584 1.485-1.596 2.486-1.012 1.001-1.012 1.001-2.409 1.507-1.397.506-1.397.506-3.002.506-1.563 0-1.563 0-2.949-.506-1.385-.506-1.385-.506-2.42-1.507-1.033-1.001-1.033-1.001-1.628-2.486-.594-1.485-.594-1.485-.594-3.443s0-1.958.617-3.443c.615-1.485.615-1.485 1.66-2.497 1.045-1.012 1.045-1.012 2.42-1.518s1.375-.506 2.894-.506zM98.5 11.362c1.121 0 1.121 0 1.903.319.78.319.78.319 1.265.88.483.561.483.561.703 1.331.22.77.22.77.22 1.672v7.172l-.095.027c-.208.054-.208.054-.543.116-.417.077-.417.077-.968.165-.55.088-.55.088-1.22.143-.671.055-.671.055-1.376.055-.901 0-.901 0-1.66-.198-.76-.198-.76-.198-1.32-.627-.562-.429-.562-.429-.88-1.1-.32-.671-.32-.671-.32-1.639 0-.924 0-.924.352-1.584s.352-.66.99-1.089c.639-.429.639-.429 1.519-.627.88-.198.88-.198 1.913-.198.309 0 .309 0 .65.033.34.033.34.033.66.088.319.055.319.055.55.11.23.055.23.055.319.099v-.704l-.006-.295c-.017-.44-.017-.44-.083-.86-.088-.561-.088-.561-.385-1.012-.296-.451-.296-.451-.836-.726-.538-.275-.538-.275-1.418-.275-1.254 0-1.254 0-1.87.176-.617.176-.617.176-.902.286l-.198-1.254.115-.05c.37-.148.37-.148 1.04-.28.78-.154.78-.154 1.88-.154zm24.078 0c2.09 0 2.09 0 3.334 1.364 1.243 1.364 1.243 1.364 1.243 4.202 0 .176 0 .176-.011.352-.012.176-.012.176-.034.33h-7.985l.014.294c.12 1.876.12 1.876 1.02 2.918.967 1.122.967 1.122 3.08 1.122 1.166 0 1.166 0 1.847-.22.683-.22.683-.22.99-.374l.264 1.232-.085.045c-.328.161-.328.161-1.07.373-.846.242-.846.242-1.99.242-1.497 0-1.497 0-2.552-.44-1.056-.44-1.056-.44-1.738-1.232-.683-.792-.683-.792-.99-1.881-.308-1.089-.308-1.089-.308-2.387 0-1.496 0-1.496.429-2.607.429-1.111.429-1.111 1.121-1.859.694-.748.694-.748 1.584-1.111.891-.363.891-.363 1.837-.363zm9.383-3.344v3.608h4.532v1.21h-4.531v6.05l.003.27c.02.784.02.784.161 1.303.166.605.166.605.474.935.308.33.308.33.748.44.44.11.44.11.968.11.901 0 .901 0 1.452-.209.55-.209.55-.209.858-.385l.351 1.188-.084.05c-.32.18-.32.18-.993.401-.77.253-.77.253-1.673.253-1.055 0-1.055 0-1.77-.275-.715-.275-.715-.275-1.144-.836-.43-.561-.43-.561-.606-1.397-.175-.836-.175-.836-.175-1.98V8.282l1.43-.264zm-24.035-2.09v14.3l.004.203c.016.389.016.389.095.644.1.319.1.319.297.506.198.187.198.187.518.275.319.088.319.088.758.154l-.198 1.188c-.726-.022-.726-.022-1.264-.187-.54-.165-.54-.165-.903-.506-.363-.341-.363-.341-.55-.88-.187-.539-.187-.539-.187-1.353V6.192l1.43-.264zm5.885 0v14.3l.004.203c.016.389.016.389.096.644.099.319.099.319.297.506.198.187.198.187.517.275.318.088.318.088.758.154l-.197 1.188c-.726-.022-.726-.022-1.266-.187-.538-.165-.538-.165-.901-.506-.363-.341-.363-.341-.55-.88-.187-.539-.187-.539-.187-1.353V6.192l1.43-.264zM75.344 7.754l.222 1.282c.225 1.274.225 1.274.46 2.513.352 1.859.352 1.859.736 3.597.386 1.738.386 1.738.792 3.289.407 1.551.407 1.551.803 2.871.947-2.442.947-2.442 2.024-5.291 1.078-2.849 1.078-2.849 2.135-6.391h1.297l.235.779c.94 3.082.94 3.082 1.888 5.634 1.067 2.871 1.067 2.871 2.08 5.269.77-2.596.77-2.596 1.528-6.116.76-3.52.76-3.52 1.463-7.436h1.475l-.133.776c-.331 1.92-.331 1.92-.67 3.635-.407 2.057-.407 2.057-.847 3.916s-.44 1.859-.924 3.564c-.485 1.705-.485 1.705-1.057 3.355h-1.606l-.525-1.254-.52-1.254c-.516-1.254-.516-1.254-1.022-2.585s-.506-1.331-1.012-2.783-.506-1.452-1.035-3.08c-.528 1.628-.528 1.628-1.044 3.08-.517 1.452-.517 1.452-1.023 2.783-.506 1.331-.506 1.331-1.023 2.585-.517 1.254-.517 1.254-1.046 2.508h-1.584l-.29-.828c-.427-1.248-.427-1.248-.799-2.527-.495-1.705-.495-1.705-.923-3.564-.43-1.859-.43-1.859-.815-3.916-.385-2.057-.385-2.057-.78-4.411h1.54zm66.726 0l.21.214c.641.663.641.663 1.395 1.568.88 1.056.88 1.056 1.793 2.255.914 1.199.914 1.199 1.816 2.486.901 1.287.901 1.287 1.694 2.475V7.754h3.41V23h-2.883l-.599-1.045c-1.218-2.083-1.218-2.083-2.59-4.125-1.716-2.552-1.716-2.552-3.653-4.818V23h-3.388V7.754h2.794zm33.945 0l.113.655c.173.992.173.992.372 2.04.264 1.397.264 1.397.55 2.805.286 1.408.286 1.408.582 2.728.298 1.32.298 1.32.606 2.442.396-1.078.396-1.078.77-2.288.374-1.21.374-1.21.725-2.42.353-1.21.353-1.21.65-2.332.297-1.122.297-1.122.538-2.002h2.927l.107.37c.22.759.22.759.475 1.665.32 1.133.32 1.133.683 2.343.363 1.21.363 1.21.736 2.42.375 1.21.375 1.21.726 2.244.286-1.122.286-1.122.584-2.442.296-1.32.296-1.32.56-2.728.264-1.408.264-1.408.517-2.805.254-1.397.254-1.397.474-2.695h3.564l-.318 1.536c-.653 3.08-.653 3.08-1.453 6.23-1.001 3.938-1.001 3.938-2.167 7.48h-3.147l-.306-.853c-.609-1.723-.609-1.723-1.19-3.58-.726-2.321-.726-2.321-1.43-4.653-.703 2.332-.703 2.332-1.407 4.653-.704 2.321-.704 2.321-1.474 4.433h-3.147l-.33-1.02c-.979-3.085-.979-3.085-1.837-6.46-1-3.938-1-3.938-1.77-7.766h3.717zM98.94 17.412c-.528 0-.528 0-1.1.077-.572.077-.572.077-1.056.33-.485.253-.485.253-.793.693-.307.44-.307.44-.307 1.166 0 .638 0 .638.209 1.078.209.44.209.44.594.704.384.264.384.264.924.385.538.121.538.121 1.22.121.837 0 .837 0 1.464-.055.626-.055.626-.055 1.067-.143v-4.004l-.09-.037c-.24-.093-.24-.093-.68-.194-.528-.121-.528-.121-1.453-.121zm64.174-6.996c-.969 0-.969 0-1.716.363-.748.363-.748.363-1.265 1.012-.517.649-.517.649-.793 1.562-.274.913-.274.913-.274 2.013 0 1.122 0 1.122.274 2.024.276.902.276.902.793 1.551.517.649.517.649 1.264 1.001.749.352.749.352 1.717.352.945 0 .945 0 1.704-.352.76-.352.76-.352 1.276-1.001.518-.649.518-.649.792-1.551.276-.902.276-.902.276-2.024 0-1.122 0-1.122-.276-2.035-.274-.913-.274-.913-.791-1.562s-.517-.649-1.276-1.001c-.76-.352-.76-.352-1.706-.352zM122.6 12.638c-.77 0-.77 0-1.375.308-.606.308-.606.308-1.056.825-.451.517-.451.517-.705 1.199-.252.682-.252.682-.297 1.43h6.512c-.043-1.782-.043-1.782-.835-2.772-.792-.99-.792-.99-2.244-.99z"/>
</svg>
