<svg xmlns="http://www.w3.org/2000/svg" width="182" height="24" viewBox="0 0 182 24">
    <path fill="#FFF" fill-rule="evenodd" d="M11.607 0v.548c-.334.06-.613.13-.836.205-.222.076-.334.236-.334.479 0 .091.102.41.307.958.203.548.473 1.248.807 2.099.335.852.705 1.787 1.115 2.806l1.225 3.057c.409 1.02.789 1.985 1.143 2.897.352.913.64 1.674.863 2.282h.112c.222-.578.501-1.315.835-2.213.335-.897.697-1.855 1.087-2.875.39-1.018.78-2.045 1.17-3.08.39-1.033.742-1.976 1.058-2.828.315-.852.566-1.559.752-2.122.186-.563.279-.89.279-.981 0-.243-.14-.403-.418-.48L20.02.549V0h13.26v.548c-.26.06-.483.13-.669.205-.186.076-.279.236-.279.479 0 .03.093.335.28.912.185.579.425 1.309.724 2.19.296.883.63 1.864 1.002 2.944.37 1.08.725 2.13 1.059 3.148.334 1.02.65 1.97.947 2.852.297.882.52 1.566.669 2.053h.11c.113-.365.326-.95.642-1.757.315-.805.677-1.71 1.086-2.715.409-1.003.826-2.045 1.254-3.125.426-1.08.826-2.076 1.197-2.989.371-.912.678-1.688.92-2.327.241-.639.362-1.004.362-1.095 0-.274-.12-.456-.362-.547-.242-.092-.51-.167-.808-.228V0h9.36v.548c-.298.03-.51.122-.64.273-.131.153-.233.35-.307.593l-.446 1.118c-.26.655-.594 1.476-1.002 2.464-.41.99-.874 2.115-1.393 3.377l-.342.823c-.224.54.266 1.101.963 1.101H52l-1.114 3.65H45.36c-.436 0-.824.229-.964.567-.21.504-.414 1.005-.614 1.501-.501 1.248-.957 2.366-1.365 3.354-.41.989-.733 1.795-.975 2.418-.242.624-.362.966-.362 1.027 0 .273.12.441.362.502s.492.106.752.136V24H30.606v-.548c.742-.09 1.114-.303 1.114-.638 0-.365-.186-1.118-.557-2.259-.372-1.14-.827-2.47-1.365-3.992-.54-1.52-1.114-3.14-1.728-4.86l-.302-.85c-.498-1.405-.964-2.741-1.397-4.009h-.111c-.446 1.339-1.003 2.883-1.672 4.631-.668 1.75-1.319 3.43-1.95 5.042-.632 1.613-1.17 3.012-1.615 4.198-.446 1.186-.669 1.886-.669 2.099 0 .426.408.638 1.226.638V24H9.546v-.548c.296-.06.557-.129.78-.205.223-.076.334-.266.334-.57 0-.06-.121-.395-.362-1.004-.242-.608-.567-1.407-.975-2.395-.41-.989-.864-2.114-1.365-3.377-.182-.457-.366-.917-.553-1.38-.137-.342-.527-.573-.966-.573H1.114L0 10.298h4.267c.694 0 1.184-.558.964-1.097L4.81 8.167c-.52-1.277-.985-2.425-1.393-3.445-.41-1.018-.743-1.862-1.003-2.532-.26-.669-.409-1.05-.445-1.14C1.857.714 1.67.547 1.41.547V0h10.196zm140.505 5.402c1.563 0 1.563 0 2.948.506 1.387.506 1.387.506 2.42 1.518 1.035 1.012 1.035 1.012 1.629 2.497.593 1.485.593 1.485.593 3.443s0 1.958-.582 3.443c-.584 1.485-.584 1.485-1.596 2.486-1.012 1.001-1.012 1.001-2.409 1.507-1.397.506-1.397.506-3.002.506-1.563 0-1.563 0-2.949-.506-1.385-.506-1.385-.506-2.42-1.507-1.034-1.001-1.034-1.001-1.627-2.486-.594-1.485-.594-1.485-.594-3.443s0-1.958.615-3.443c.617-1.485.617-1.485 1.661-2.497 1.046-1.012 1.046-1.012 2.42-1.518 1.375-.506 1.375-.506 2.894-.506zM87.5 9.362c1.121 0 1.121 0 1.903.319.78.319.78.319 1.265.88.483.561.483.561.703 1.331.22.77.22.77.22 1.672v7.172l-.095.027c-.208.054-.208.054-.543.116-.417.077-.417.077-.968.165-.55.088-.55.088-1.22.143-.671.055-.671.055-1.376.055-.901 0-.901 0-1.66-.198-.76-.198-.76-.198-1.32-.627-.562-.429-.562-.429-.88-1.1-.32-.671-.32-.671-.32-1.639 0-.924 0-.924.352-1.584s.352-.66.99-1.089c.639-.429.639-.429 1.519-.627.88-.198.88-.198 1.913-.198.309 0 .309 0 .65.033.34.033.34.033.66.088.319.055.319.055.55.11.23.055.23.055.319.099v-.704l-.006-.295c-.017-.44-.017-.44-.083-.86-.088-.561-.088-.561-.385-1.012-.296-.451-.296-.451-.836-.726-.538-.275-.538-.275-1.418-.275-1.254 0-1.254 0-1.87.176-.617.176-.617.176-.902.286l-.198-1.254.115-.05c.37-.148.37-.148 1.04-.28.78-.154.78-.154 1.88-.154zm24.078 0c2.09 0 2.09 0 3.334 1.364 1.243 1.364 1.243 1.364 1.243 4.202 0 .176 0 .176-.011.352-.012.176-.012.176-.034.33h-7.985l.014.294c.12 1.876.12 1.876 1.02 2.918.967 1.122.967 1.122 3.08 1.122 1.166 0 1.166 0 1.847-.22.683-.22.683-.22.99-.374l.264 1.232-.085.045c-.328.161-.328.161-1.07.373-.846.242-.846.242-1.99.242-1.497 0-1.497 0-2.552-.44-1.056-.44-1.056-.44-1.738-1.232-.683-.792-.683-.792-.99-1.881-.308-1.089-.308-1.089-.308-2.387 0-1.496 0-1.496.429-2.607.429-1.111.429-1.111 1.121-1.859.694-.748.694-.748 1.584-1.111.891-.363.891-.363 1.837-.363zm9.383-3.344v3.608h4.533v1.21h-4.532v6.05l.003.27c.02.784.02.784.161 1.303.166.605.166.605.474.935.307.33.307.33.747.44.44.11.44.11.969.11.901 0 .901 0 1.452-.209.55-.209.55-.209.858-.385l.351 1.188-.084.05c-.32.18-.32.18-.993.401-.77.253-.77.253-1.673.253-1.055 0-1.055 0-1.77-.275-.716-.275-.716-.275-1.145-.836-.429-.561-.429-.561-.605-1.397s-.176-.836-.176-1.98V6.282l1.43-.264zm-24.034-2.09v14.3l.003.203c.016.389.016.389.095.644.1.319.1.319.297.506.198.187.198.187.518.275.319.088.319.088.758.154l-.198 1.188c-.726-.022-.726-.022-1.264-.187-.54-.165-.54-.165-.903-.506-.363-.341-.363-.341-.55-.88-.187-.539-.187-.539-.187-1.353V4.192l1.43-.264zm5.884 0v14.3l.004.203c.016.389.016.389.096.644.099.319.099.319.297.506.198.187.198.187.517.275.318.088.318.088.758.154l-.197 1.188c-.726-.022-.726-.022-1.266-.187-.538-.165-.538-.165-.901-.506-.363-.341-.363-.341-.55-.88-.187-.539-.187-.539-.187-1.353V4.192l1.43-.264zM64.344 5.754l.222 1.282c.225 1.274.225 1.274.46 2.513.352 1.859.352 1.859.736 3.597.386 1.738.386 1.738.792 3.289.407 1.551.407 1.551.803 2.871.947-2.442.947-2.442 2.024-5.291 1.078-2.849 1.078-2.849 2.135-6.391h1.297l.235.779c.94 3.082.94 3.082 1.888 5.634 1.067 2.871 1.067 2.871 2.08 5.269.77-2.596.77-2.596 1.528-6.116.76-3.52.76-3.52 1.463-7.436h1.475l-.133.776c-.331 1.92-.331 1.92-.67 3.635-.407 2.057-.407 2.057-.847 3.916s-.44 1.859-.924 3.564c-.485 1.705-.485 1.705-1.057 3.355h-1.606l-.525-1.254-.52-1.254c-.516-1.254-.516-1.254-1.022-2.585s-.506-1.331-1.012-2.783-.506-1.452-1.035-3.08c-.528 1.628-.528 1.628-1.044 3.08-.517 1.452-.517 1.452-1.023 2.783-.506 1.331-.506 1.331-1.023 2.585-.517 1.254-.517 1.254-1.046 2.508h-1.584l-.29-.828c-.427-1.248-.427-1.248-.799-2.527-.495-1.705-.495-1.705-.923-3.564-.43-1.859-.43-1.859-.815-3.916-.385-2.057-.385-2.057-.78-4.411h1.54zm66.726 0l.21.214c.641.663.641.663 1.395 1.568.88 1.056.88 1.056 1.793 2.255.913 1.199.913 1.199 1.816 2.486.901 1.287.901 1.287 1.694 2.475V5.754h3.41V21h-2.882l-.6-1.045c-1.218-2.083-1.218-2.083-2.59-4.125-1.716-2.552-1.716-2.552-3.653-4.818V21h-3.388V5.754h2.794zm33.945 0l.113.655c.173.992.173.992.372 2.04.264 1.397.264 1.397.55 2.805.286 1.408.286 1.408.582 2.728.298 1.32.298 1.32.606 2.442.396-1.078.396-1.078.77-2.288.374-1.21.374-1.21.725-2.42.353-1.21.353-1.21.65-2.332.297-1.122.297-1.122.538-2.002h2.927l.107.37c.22.759.22.759.475 1.665.32 1.133.32 1.133.683 2.343.363 1.21.363 1.21.736 2.42.375 1.21.375 1.21.726 2.244.286-1.122.286-1.122.584-2.442.296-1.32.296-1.32.56-2.728.264-1.408.264-1.408.517-2.805.254-1.397.254-1.397.474-2.695h3.564l-.318 1.536c-.653 3.08-.653 3.08-1.453 6.23-1.001 3.938-1.001 3.938-2.167 7.48h-3.147l-.306-.853c-.609-1.723-.609-1.723-1.19-3.58-.726-2.321-.726-2.321-1.43-4.653-.703 2.332-.703 2.332-1.407 4.653-.704 2.321-.704 2.321-1.474 4.433h-3.147l-.33-1.02c-.979-3.085-.979-3.085-1.837-6.46-1-3.938-1-3.938-1.77-7.766h3.717zM87.94 15.412c-.528 0-.528 0-1.1.077-.572.077-.572.077-1.056.33-.485.253-.485.253-.793.693-.307.44-.307.44-.307 1.166 0 .638 0 .638.209 1.078.209.44.209.44.594.704.384.264.384.264.924.385.538.121.538.121 1.22.121.837 0 .837 0 1.464-.055.626-.055.626-.055 1.067-.143v-4.004l-.09-.037c-.24-.093-.24-.093-.68-.194-.528-.121-.528-.121-1.453-.121zm64.174-6.996c-.969 0-.969 0-1.716.363-.748.363-.748.363-1.265 1.012-.517.649-.517.649-.793 1.562-.274.913-.274.913-.274 2.013 0 1.122 0 1.122.274 2.024.276.902.276.902.793 1.551.517.649.517.649 1.264 1.001.749.352.749.352 1.717.352.945 0 .945 0 1.704-.352.76-.352.76-.352 1.276-1.001.518-.649.518-.649.792-1.551.276-.902.276-.902.276-2.024 0-1.122 0-1.122-.276-2.035-.274-.913-.274-.913-.791-1.562s-.517-.649-1.276-1.001c-.76-.352-.76-.352-1.706-.352zM111.6 10.638c-.77 0-.77 0-1.375.308-.606.308-.606.308-1.056.825-.451.517-.451.517-.705 1.199-.252.682-.252.682-.297 1.43h6.512c-.043-1.782-.043-1.782-.835-2.772-.792-.99-.792-.99-2.244-.99z"/>
</svg>
