<svg xmlns="http://www.w3.org/2000/svg" width="101" height="140" viewBox="0 0 101 140"><g><g><path fill="#e58314" d="M101 96.25C101 120.413 81.413 140 57.25 140S13.5 120.413 13.5 96.25c0-24.174 19.587-43.75 43.75-43.75S101 72.076 101 96.25"/></g><g clip-path="url(#clip-E844BD50-1F69-4F9A-A2A7-26464BDA790B)"><path fill="#222829" d="M74.75 72.185h10.938V67.81H74.75z"/></g><g clip-path="url(#clip-E844BD50-1F69-4F9A-A2A7-26464BDA790B)"><path fill="#222829" d="M92.25 78.75c-4.826 0-8.75-3.924-8.75-8.75 0-4.826 3.924-8.75 8.75-8.75 4.826 0 8.75 3.924 8.75 8.75zm0-13.125A4.38 4.38 0 0 0 87.875 70a4.38 4.38 0 0 0 4.375 4.375A4.38 4.38 0 0 0 96.625 70z"/></g><g clip-path="url(#clip-E844BD50-1F69-4F9A-A2A7-26464BDA790B)"><path fill="#222829" d="M83.5 124.692h-4.375V94.069a6.57 6.57 0 0 0-6.563-6.563H66V83.13h6.563c6.03 0 10.937 4.907 10.937 10.938z"/></g><g clip-path="url(#clip-E844BD50-1F69-4F9A-A2A7-26464BDA790B)"><path fill="#222829" d="M81.31 140c-4.826 0-8.75-3.924-8.75-8.75 0-4.826 3.924-8.75 8.75-8.75 4.826 0 8.75 3.924 8.75 8.75zm0-13.125a4.38 4.38 0 0 0-4.375 4.375 4.38 4.38 0 0 0 4.375 4.375 4.38 4.38 0 0 0 4.375-4.375z"/></g><g clip-path="url(#clip-E844BD50-1F69-4F9A-A2A7-26464BDA790B)"><path fill="#222829" d="M72.563 56.873H66v-4.375h6.563a6.57 6.57 0 0 0 6.562-6.563V15.31H83.5v30.625c0 6.03-4.907 10.938-10.938 10.938"/></g><g clip-path="url(#clip-E844BD50-1F69-4F9A-A2A7-26464BDA790B)"><path fill="#222829" d="M81.31 17.5c-4.826 0-8.75-3.924-8.75-8.75 0-4.826 3.924-8.75 8.75-8.75 4.826 0 8.75 3.924 8.75 8.75zm0-13.125a4.38 4.38 0 0 0-4.375 4.375 4.38 4.38 0 0 0 4.375 4.375 4.38 4.38 0 0 0 4.375-4.375z"/></g><g clip-path="url(#clip-E844BD50-1F69-4F9A-A2A7-26464BDA790B)"><path fill="#222829" d="M39.75 140h4.375v-17.5H39.75z"/></g><g clip-path="url(#clip-E844BD50-1F69-4F9A-A2A7-26464BDA790B)"><path fill="#222829" d="M39.75 35h4.375V17.5H39.75z"/></g><g clip-path="url(#clip-E844BD50-1F69-4F9A-A2A7-26464BDA790B)"><path fill="#222829" d="M63.81 43.75c-4.826 0-8.75-3.924-8.75-8.75 0-4.826 3.924-8.75 8.75-8.75 4.826 0 8.75 3.924 8.75 8.75zm0-13.125A4.38 4.38 0 0 0 59.435 35a4.38 4.38 0 0 0 4.375 4.375A4.38 4.38 0 0 0 68.185 35z"/></g><g clip-path="url(#clip-E844BD50-1F69-4F9A-A2A7-26464BDA790B)"><path fill="#222829" d="M61.63 28.438h4.375V8.75H61.63z"/></g><g clip-path="url(#clip-E844BD50-1F69-4F9A-A2A7-26464BDA790B)"><path fill="#222829" d="M66 72.185h4.375V67.81H66z"/></g><g clip-path="url(#clip-E844BD50-1F69-4F9A-A2A7-26464BDA790B)"><path fill="#222829" d="M31.005 100.63C14.118 100.63.38 86.892.38 70.005S14.117 39.38 31.005 39.38c16.887 0 30.625 13.737 30.625 30.625l-4.818 4.818c.29-1.562.443-3.173.443-4.818l-26.25-26.25c-14.475 0-26.25 11.775-26.25 26.25s11.775 26.25 26.25 26.25c1.645 0 3.256-.152 4.818-.443zm25.807-25.807L35.823 95.812c10.62-1.978 19.011-10.37 20.989-20.989z"/></g><g clip-path="url(#clip-E844BD50-1F69-4F9A-A2A7-26464BDA790B)"><path fill="#222829" d="M44.13 72.185h4.375V67.81H44.13z"/></g><g clip-path="url(#clip-E844BD50-1F69-4F9A-A2A7-26464BDA790B)"><path fill="#222829" d="M39.75 4.375h4.375V0H39.75z"/></g><g clip-path="url(#clip-E844BD50-1F69-4F9A-A2A7-26464BDA790B)"><path fill="#222829" d="M39.75 13.125h4.375V8.75H39.75z"/></g><g clip-path="url(#clip-E844BD50-1F69-4F9A-A2A7-26464BDA790B)"><path fill="#222829" d="M39.75 118.125h4.375v-4.375H39.75z"/></g><g clip-path="url(#clip-E844BD50-1F69-4F9A-A2A7-26464BDA790B)"><path fill="#222829" d="M39.75 109.375h4.375V105H39.75z"/></g></g></svg>