<svg xmlns="http://www.w3.org/2000/svg" xmlns:xlink="http://www.w3.org/1999/xlink" width="140" height="140" viewBox="0 0 140 140">
    <defs>
        <path id="prefix__a" d="M0 140L140 140 140 0 0 0z"/>
    </defs>
    <g fill="none" fill-rule="evenodd">
        <path fill="#222829" d="M109.375 140h-52.5c-14.475 0-26.25-11.775-26.25-26.25S42.4 87.5 56.875 87.5h26.25v4.375h-26.25C44.813 91.875 35 101.688 35 113.75s9.813 21.875 21.875 21.875h52.5c12.062 0 21.875-9.813 21.875-21.875s-9.813-21.875-21.875-21.875H87.5V87.5h21.875c14.475 0 26.25 11.775 26.25 26.25S123.85 140 109.375 140M83.125 70h-26.25v-4.375h26.25C95.187 65.625 105 55.812 105 43.75s-9.813-21.875-21.875-21.875h-52.5c-12.062 0-21.875 9.813-21.875 21.875s9.813 21.875 21.875 21.875H52.5V70H30.625C16.15 70 4.375 58.225 4.375 43.75S16.15 17.5 30.625 17.5h52.5c14.475 0 26.25 11.775 26.25 26.25S97.6 70 83.125 70"/>
        <mask id="prefix__b" fill="#fff">
            <use xlink:href="#prefix__a"/>
        </mask>
        <path fill="#222829" d="M83.125 70L131.25 70 131.25 65.625 83.125 65.625zM30.625 91.875L56.875 91.875 56.875 87.5 30.625 87.5zM109.375 109.375c-2.413 0-4.375 1.962-4.375 4.375 0 2.413 1.962 4.375 4.375 4.375 2.413 0 4.375-1.962 4.375-4.375 0-2.413-1.962-4.375-4.375-4.375m0 13.125c-4.826 0-8.75-3.924-8.75-8.75 0-4.826 3.924-8.75 8.75-8.75 4.826 0 8.75 3.924 8.75 8.75 0 4.826-3.924 8.75-8.75 8.75M30.625 39.375c-2.413 0-4.375 1.962-4.375 4.375 0 2.413 1.962 4.375 4.375 4.375 2.413 0 4.375-1.962 4.375-4.375 0-2.413-1.962-4.375-4.375-4.375m0 13.125c-4.826 0-8.75-3.924-8.75-8.75 0-4.826 3.924-8.75 8.75-8.75 4.826 0 8.75 3.924 8.75 8.75 0 4.826-3.924 8.75-8.75 8.75M105 80.938L109.375 80.938 109.375 76.563 105 76.563zM96.25 80.938L100.625 80.938 100.625 76.563 96.25 76.563zM83.125 80.938L87.5 80.938 87.5 76.563 83.125 76.563zM74.375 80.938L78.75 80.938 78.75 76.563 74.375 76.563zM61.25 80.938L65.625 80.938 65.625 76.563 61.25 76.563zM52.5 80.938L56.875 80.938 56.875 76.563 52.5 76.563zM39.375 80.938L43.75 80.938 43.75 76.563 39.375 76.563zM30.625 80.938L35 80.938 35 76.563 30.625 76.563zM91.875 122.5L96.25 122.5 96.25 118.125 91.875 118.125zM83.125 122.5L87.5 122.5 87.5 118.125 83.125 118.125zM74.375 122.5L78.75 122.5 78.75 118.125 74.375 118.125zM61.25 39.375L65.625 39.375 65.625 35 61.25 35zM52.5 39.375L56.875 39.375 56.875 35 52.5 35zM43.75 39.375L48.125 39.375 48.125 35 43.75 35z" mask="url(#prefix__b)"/>
        <path fill="#222829" d="M109.375 131.25h-78.75c-9.65 0-17.5-7.85-17.5-17.5V105H17.5v8.75c0 7.238 5.887 13.125 13.125 13.125h78.75c7.238 0 13.125-5.887 13.125-13.125v-70c0-7.238-5.887-13.125-13.125-13.125h-78.75c-7.238 0-13.125 5.887-13.125 13.125h-4.375c0-9.65 7.85-17.5 17.5-17.5h78.75c9.65 0 17.5 7.85 17.5 17.5v70c0 9.65-7.85 17.5-17.5 17.5M0 96.25L4.375 96.25 4.375 91.875 0 91.875zM135.625 70L140 70 140 65.625 135.625 65.625z" mask="url(#prefix__b)"/>
        <path fill="#222829" d="M13.125 91.875h5.21l1.094-2.188-2.187-4.374 2.187-4.376-1.093-2.187h-5.211v13.125zm7.914 4.375H8.75V74.375h12.29l3.28 6.563-2.187 4.374 2.188 4.376-3.282 6.562z" mask="url(#prefix__b)"/>
        <path fill="#222829" d="M13.125 100.625L17.5 100.625 17.5 94.063 13.125 94.063zM13.125 76.563L17.5 76.563 17.5 70 13.125 70zM10.938 87.5L19.688 87.5 19.688 83.125 10.938 83.125z" mask="url(#prefix__b)"/>
    </g>
</svg>
