<svg xmlns="http://www.w3.org/2000/svg" xmlns:xlink="http://www.w3.org/1999/xlink" width="114" height="130" viewBox="0 0 114 130">
    <defs>
        <path id="prefix__b" d="M0.45 0L43.511 0 43.511 28.43 0.45 28.43z"/>
        <path id="prefix__d" d="M0 130L113.13 130 113.13 0 0 0z"/>
        <filter id="prefix__a">
            <feColorMatrix in="SourceGraphic" values="0 0 0 0 0.164706 0 0 0 0 0.168627 0 0 0 0 0.192157 0 0 0 1.000000 0"/>
        </filter>
    </defs>
    <g fill="none" fill-rule="evenodd" filter="url(#prefix__a)">
        <path fill="#222829" d="M79.19 130h-4.102c0-16.076-6.36-24.437-12.512-32.522-5.949-7.82-12.103-15.907-12.103-30.297h4.103c0 13.036 5.479 20.236 11.28 27.861C72.41 103.661 79.19 112.571 79.19 130M50.787 4.625c-2.237 1.87-5.595 5.14-7.184 8.365 2.302-.407 4.696-.655 7.184-.74V4.624zM8.389 97.718H4.351V81.432c0-37.518 12.156-60.866 34.586-67.359C40.51 7.323 48.58 1.146 49.587.397L50.122 0h4.702v16.286h-2.019c-36.712 0-44.416 35.425-44.416 65.146v16.286z"/>
        <g transform="translate(69.618 1.745)">
            <mask id="prefix__c" fill="#fff">
                <use xlink:href="#prefix__b"/>
            </mask>
            <path fill="#222829" d="M10.359 28.43L8.073 25.041 35.735 5.654 1.844 18.382 0.45 14.522 39.116 0 43.512 0 43.512 5.195z" mask="url(#prefix__c)"/>
        </g>
        <path fill="#222829" d="M92.625 79.396h-.765l-.571-.513c-.175-.159-17.77-15.773-34.887-15.773-9.988 0-18.112-8.219-18.112-18.323h4.025c0 7.857 6.32 14.251 14.087 14.251 16.948 0 33.462 13.29 36.923 16.244 2.84-.332 5.084-2.665 5.317-5.566l-21.86-39.201c-.097-.184-7.66-14.229-18.368-14.229v-4.071c13.131 0 21.545 15.675 21.897 16.341l22.376 40.126v.535c0 5.613-4.514 10.179-10.062 10.179"/>
        <path fill="#222829" d="M66.831 40.134L60.916 34.204 63.704 31.409 69.618 37.339zM12.183 125.638L0 125.638 0 121.624 8.122 121.624 8.122 118.851 0 114.837 0 105.57 12.183 105.57 12.183 109.584 4.061 109.584 4.061 112.357 12.183 116.371z"/>
        <mask id="prefix__e" fill="#fff">
            <use xlink:href="#prefix__d"/>
        </mask>
        <path fill="#222829" d="M3.481 130L7.832 130 7.832 123.893 3.481 123.893zM3.481 107.315L7.832 107.315 7.832 101.208 3.481 101.208z" mask="url(#prefix__e)"/>
    </g>
</svg>
