<svg xmlns="http://www.w3.org/2000/svg" xmlns:xlink="http://www.w3.org/1999/xlink" width="140" height="140" viewBox="0 0 140 140">
    <defs>
        <filter id="prefix__a">
            <feColorMatrix in="SourceGraphic" values="0 0 0 0 0.164706 0 0 0 0 0.168627 0 0 0 0 0.192157 0 0 0 1.000000 0"/>
        </filter>
        <path id="prefix__b" d="M0 140L140 140 140 0 0 0z"/>
    </defs>
    <g fill="none" fill-rule="evenodd" filter="url(#prefix__a)">
        <path fill="#222829" d="M70 92.105L65.579 92.105 65.579 75.99 74.421 67.295 74.421 48.632 78.842 48.632 78.842 69.095 70 77.789z"/>
        <mask id="prefix__c" fill="#fff">
            <use xlink:href="#prefix__b"/>
        </mask>
        <path fill="#222829" d="M83.263 140L87.684 140 87.684 74.421 83.263 74.421zM65.579 76.632L70 76.632 70 56.737 65.579 56.737zM43.474 140L47.895 140 47.895 87.684 43.474 87.684zM34.632 92.105L39.053 92.105 39.053 87.684 34.632 87.684zM26.526 92.105L30.947 92.105 30.947 87.684 26.526 87.684zM52.316 70L56.737 70 56.737 65.579 52.316 65.579zM74.421 43.474L78.842 43.474 78.842 39.053 74.421 39.053zM83.263 70L87.684 70 87.684 65.579 83.263 65.579zM83.263 61.158L87.684 61.158 87.684 56.737 83.263 56.737z" mask="url(#prefix__c)"/>
        <path fill="#222829" d="M61.158 117.895H8.737c-4.819 0-8.737-3.931-8.737-8.765V34.632h4.368v74.498c0 2.417 1.96 4.382 4.369 4.382h52.42v4.383zM131.158 109.79h-4.372V30.812H8.744C3.922 30.813 0 26.878 0 22.038s3.922-8.775 8.744-8.775h2.186v4.388H8.744c-2.411 0-4.372 1.968-4.372 4.387 0 2.42 1.96 4.388 4.372 4.388h122.414v83.363z" mask="url(#prefix__c)"/>
        <path fill="#222829" d="M47.895 74.421L25.789 74.421 25.789 70 43.474 70 43.474 47.895 47.895 47.895z" mask="url(#prefix__c)"/>
        <path fill="#222829" d="M34.632 56.737L39.053 56.737 39.053 52.316 34.632 52.316zM34.632 65.579L39.053 65.579 39.053 61.158 34.632 61.158zM74.421 109.053L78.842 109.053 78.842 104.632 74.421 104.632zM74.421 100.947L78.842 100.947 78.842 96.526 74.421 96.526zM74.421 92.105L78.842 92.105 78.842 87.684 74.421 87.684zM56.7 17.684h78.916v-4.42H56.7v4.42zm-4.384 4.421H140V8.842H52.316v13.263z" mask="url(#prefix__c)"/>
        <path fill="#222829" d="M48.101 22.105L8.842 22.105 8.842 0 117.895 0 117.895 11.053 113.533 11.053 113.533 4.421 13.204 4.421 13.204 17.684 48.101 17.684z" mask="url(#prefix__c)"/>
        <path fill="#222829" d="M17.684 13.263L22.105 13.263 22.105 8.842 17.684 8.842zM26.526 13.263L30.947 13.263 30.947 8.842 26.526 8.842zM34.632 13.263L39.053 13.263 39.053 8.842 34.632 8.842zM56.737 140L52.316 140 52.316 96.526 59.863 96.526 70 106.495 70 131.305 65.579 131.305 65.579 108.295 58.032 100.874 56.737 100.874zM65.579 140L70 140 70 135.579 65.579 135.579zM140 117.895L74.421 117.895 74.421 113.509 135.628 113.509 135.628 25.789 140 25.789z" mask="url(#prefix__c)"/>
        <path fill="#222829" d="M87.104 95.789L84 92.67 92.137 84.493 92.137 52.316 96.526 52.316 96.526 86.319zM137.79 100.947h-17.685c-3.656 0-6.631-2.975-6.631-6.631V83.263h4.42v11.053c0 1.22.993 2.21 2.211 2.21h17.684v4.421zM117.895 78.842h-4.421V50.105c0-3.656 2.975-6.631 6.631-6.631h17.684v4.42h-17.684c-1.218 0-2.21.991-2.21 2.211v28.737zM34.632 100.947L45.684 100.947 45.684 96.526 34.632 96.526zM8.842 109.053L13.263 109.053 13.263 43.474 8.842 43.474zM8.842 39.053L13.263 39.053 13.263 34.632 8.842 34.632z" mask="url(#prefix__c)"/>
        <path fill="#222829" d="M94.316 87.684L105.368 87.684 105.368 83.263 94.316 83.263zM100.947 78.842L105.368 78.842 105.368 74.421 100.947 74.421zM56.737 92.105L52.347 92.105 52.347 82.01 44.211 73.85 47.314 70.737 56.737 80.187z" mask="url(#prefix__c)"/>
    </g>
</svg>
